<?xml version="1.0" encoding="UTF-8"?>
<svg id="Layer_3" data-name="Layer 3" xmlns="http://www.w3.org/2000/svg" viewBox="0 0 850 500">
  <defs>
    <style>
      .cls-1 {
        fill: none;
        fill-rule: evenodd;
        stroke: #000;
        stroke-miterlimit: 10;
        stroke-width: 60px;
      }

      .cls-2 {
        fill: #000;
      }

      .cls-2, .cls-3 {
        stroke-width: 0px;
      }

      .cls-3 {
        fill: #0f62fe;
      }
    </style>
  </defs>
  <g id="Logo">
    <path class="cls-1" d="M0,112h215c76.22,0,138,61.78,138,138s-61.78,138-138,138H75"/>
    <rect class="cls-3" y="358" width="60" height="60"/>
  </g>
  <g>
    <path class="cls-2" d="M458.46,173.9v-87.3h36.33c9.69,0,17.1,2.05,22.24,6.15,5.14,4.1,7.71,9.43,7.71,16,0,5.04-1.47,9.25-4.42,12.63-2.95,3.38-6.88,5.62-11.81,6.71v.12c3.63.23,6.9,1.24,9.81,3.02,2.91,1.78,5.21,4.2,6.91,7.27,1.7,3.07,2.55,6.65,2.55,10.75,0,4.8-1.18,9.06-3.54,12.77-2.36,3.71-5.8,6.62-10.31,8.73s-10.01,3.16-16.49,3.16h-38.96ZM479.03,122.05h13.77c3.36,0,6.01-.87,7.97-2.61,1.95-1.74,2.93-4.09,2.93-7.06s-.98-5.26-2.93-7c-1.95-1.74-4.61-2.61-7.97-2.61h-13.77v19.28ZM479.03,157.73h14.94c3.83,0,6.83-.89,9.02-2.67,2.19-1.78,3.28-4.23,3.28-7.35s-1.08-5.67-3.25-7.53c-2.17-1.85-5.15-2.78-8.94-2.78h-15.06v20.33Z"/>
    <path class="cls-2" d="M557.37,175.25c-6.72,0-11.94-2.15-15.67-6.45-3.73-4.3-5.6-10.25-5.6-17.87v-38.91h20.16v34.69c0,3.67.88,6.47,2.64,8.41s4.24,2.9,7.44,2.9,5.7-1.01,7.62-3.02c1.91-2.01,2.87-5.13,2.87-9.35v-33.63h20.16v61.88h-19.92v-10.02c-2.07,3.52-4.71,6.29-7.91,8.32-3.2,2.03-7.13,3.05-11.78,3.05Z"/>
    <path class="cls-2" d="M618.25,105.99c-3.2,0-5.85-.96-7.94-2.87-2.09-1.91-3.13-4.35-3.13-7.32s1.04-5.4,3.13-7.29c2.09-1.89,4.74-2.84,7.94-2.84s5.91.95,8,2.84c2.09,1.9,3.13,4.33,3.13,7.29s-1.05,5.41-3.13,7.32c-2.09,1.91-4.76,2.87-8,2.87ZM608.23,173.9v-61.88h20.16v61.88h-20.16Z"/>
    <path class="cls-2" d="M659.79,86.6v87.3h-20.16v-87.3h20.16Z"/>
    <path class="cls-2" d="M710.59,112.03v15.59h-12.71v25.49c0,1.99.39,3.36,1.17,4.1.78.74,2.3,1.11,4.57,1.11h6.97v15.59h-11.43c-7.42,0-12.86-1.4-16.32-4.19-3.46-2.79-5.19-7.2-5.19-13.21v-28.89h-10.55v-15.59h10.55v-16.88h20.21v16.88h12.71Z"/>
    <path class="cls-2" d="M479.56,206.6v87.3h-21.09v-87.3h21.09Z"/>
    <path class="cls-2" d="M510.96,260.27v33.63h-20.16v-61.88h19.92v10.02c2.07-3.52,4.71-6.29,7.91-8.32,3.2-2.03,7.13-3.05,11.78-3.05,6.72,0,11.94,2.15,15.67,6.45,3.73,4.3,5.6,10.25,5.6,17.87v38.91h-20.16v-34.69c0-3.67-.88-6.47-2.64-8.41s-4.24-2.9-7.44-2.9-5.7,1.01-7.62,3.02c-1.91,2.01-2.87,5.13-2.87,9.35Z"/>
    <path class="cls-2" d="M490.87,413.9h-32.4v-87.3h32.4c8.87,0,16.56,1.79,23.09,5.36,6.52,3.57,11.57,8.62,15.15,15.15,3.57,6.52,5.36,14.24,5.36,23.14s-1.77,16.62-5.3,23.14c-3.54,6.52-8.56,11.57-15.09,15.15-6.52,3.57-14.26,5.36-23.2,5.36ZM479.56,396.32h10.25c8.01,0,13.92-2.2,17.72-6.59s5.71-10.89,5.71-19.48-1.93-15.09-5.8-19.48-9.82-6.59-17.87-6.59h-10.02v52.15Z"/>
    <path class="cls-2" d="M572.43,415.31c-6.33,0-11.89-1.39-16.67-4.16-4.79-2.77-8.52-6.59-11.19-11.46-2.68-4.86-4.01-10.44-4.01-16.73s1.34-11.87,4.01-16.73c2.67-4.86,6.38-8.68,11.1-11.46,4.73-2.77,10.14-4.16,16.23-4.16s11.67,1.36,16.38,4.07c4.71,2.72,8.39,6.47,11.04,11.25,2.66,4.79,3.98,10.3,3.98,16.55v5.45h-43.07c.12,3.95,1.3,7.07,3.54,9.38,2.25,2.31,5.36,3.46,9.35,3.46,2.97,0,5.46-.61,7.47-1.82,2.01-1.21,3.39-2.83,4.13-4.86h18.11c-.74,4.14-2.54,7.81-5.39,11.02-2.85,3.2-6.44,5.7-10.75,7.5-4.32,1.8-9.07,2.7-14.27,2.7ZM560.36,375.88h24.14c-.47-3.24-1.76-5.78-3.87-7.62-2.11-1.84-4.84-2.75-8.2-2.75s-6.15.92-8.26,2.75c-2.11,1.84-3.38,4.38-3.81,7.62Z"/>
    <path class="cls-2" d="M650.71,352.03v15.59h-12.71v25.49c0,1.99.39,3.36,1.17,4.1.78.74,2.3,1.11,4.57,1.11h6.97v15.59h-11.43c-7.42,0-12.86-1.4-16.32-4.19-3.46-2.79-5.19-7.2-5.19-13.21v-28.89h-10.55v-15.59h10.55v-16.88h20.21v16.88h12.71Z"/>
    <path class="cls-2" d="M658.79,413.9v-61.88h19.51v10.9h.18c1.13-3.95,2.9-6.79,5.3-8.53,2.4-1.74,5.67-2.61,9.81-2.61,1.09,0,2.08,0,2.96.03.88.02,1.73.05,2.55.09v16.64c-.74-.04-1.9-.08-3.46-.12-1.56-.04-3.07-.06-4.51-.06-3.63,0-6.57,1.21-8.82,3.63-2.25,2.42-3.37,5.82-3.37,10.2v31.7h-20.16Z"/>
    <path class="cls-2" d="M735.73,415.31c-6.48,0-12.17-1.33-17.05-3.98-4.88-2.66-8.69-6.41-11.43-11.25-2.73-4.84-4.1-10.55-4.1-17.11s1.37-12.16,4.1-17.02c2.73-4.86,6.54-8.63,11.43-11.31,4.88-2.67,10.57-4.01,17.05-4.01s12.12,1.34,17.02,4.01c4.9,2.68,8.71,6.45,11.43,11.31,2.71,4.86,4.07,10.54,4.07,17.02s-1.36,12.26-4.07,17.08c-2.72,4.83-6.52,8.58-11.43,11.25-4.9,2.67-10.58,4.01-17.02,4.01ZM735.73,399.25c3.52,0,6.42-1.41,8.7-4.22s3.43-6.83,3.43-12.07-1.14-9.26-3.43-12.07-5.19-4.22-8.7-4.22-6.42,1.41-8.7,4.22-3.43,6.84-3.43,12.07,1.13,9.26,3.4,12.07c2.26,2.81,5.18,4.22,8.73,4.22Z"/>
    <path class="cls-2" d="M786.94,345.99c-3.2,0-5.85-.96-7.94-2.87-2.09-1.91-3.13-4.36-3.13-7.32s1.04-5.4,3.13-7.29c2.09-1.89,4.74-2.84,7.94-2.84s5.91.95,8,2.84c2.09,1.9,3.13,4.33,3.13,7.29s-1.05,5.41-3.13,7.32c-2.09,1.91-4.76,2.87-8,2.87ZM776.92,413.9v-61.88h20.16v61.88h-20.16Z"/>
    <path class="cls-2" d="M847.99,352.03v15.59h-12.71v25.49c0,1.99.39,3.36,1.17,4.1.78.74,2.3,1.11,4.57,1.11h6.97v15.59h-11.43c-7.42,0-12.86-1.4-16.32-4.19-3.46-2.79-5.19-7.2-5.19-13.21v-28.89h-10.55v-15.59h10.55v-16.88h20.21v16.88h12.71Z"/>
  </g>
</svg>